 <svg  version="1.0" xmlns="http://www.w3.org/2000/svg"  width="300.000000pt" height="289.000000pt" viewBox="0 0 300.000000 289.000000"  preserveAspectRatio="xMidYMid meet">  <g transform="translate(0.000000,289.000000) scale(0.100000,-0.100000)" fill="#321d6d" stroke="none"> <path d="M1204 2635 c-18 -28 -29 -170 -14 -180 7 -4 7 -13 0 -25 -14 -26 -12 -71 5 -100 21 -36 18 -49 -10 -60 -30 -11 -33 -30 -5 -30 12 0 20 -7 20 -16 0 -13 7 -15 30 -10 25 5 30 2 30 -14 0 -11 5 -20 10 -20 6 0 10 14 10 30 0 23 -4 30 -20 30 -18 0 -20 7 -20 55 0 47 -3 55 -19 55 -14 0 -19 7 -17 25 0 14 6 27 13 29 17 7 57 -16 61 -34 2 -8 8 -17 13 -18 6 -3 5 -10 -2 -18 -9 -11 -7 -14 10 -14 14 0 21 -6 21 -20 0 -11 5 -20 11 -20 11 0 2 41 -11 50 -4 3 -11 16 -15 30 -4 13 -17 37 -28 52 -17 23 -19 40 -18 123 3 120 -18 157 -55 100z m36 -140 c0 -68 -2 -75 -19 -75 -14 0 -19 6 -18 20 1 11 4 20 7 20 3 0 4 18 2 40 -5 44 2 70 18 70 6 0 10 -30 10 -75z"/> <path d="M1789 2598 c-1 -7 -1 -16 0 -20 1 -8 -37 -12 -71 -9 -11 2 -18 -5 -18 -14 0 -12 6 -15 20 -10 11 4 20 2 20 -4 0 -6 -9 -11 -20 -11 -11 0 -20 -6 -20 -14 0 -9 -15 -17 -40 -21 -22 -4 -38 -11 -35 -15 3 -5 12 -7 20 -3 8 3 15 0 15 -6 0 -6 -15 -11 -34 -11 -31 0 -34 -3 -40 -35 -4 -21 -13 -35 -21 -35 -8 0 -15 -9 -15 -20 0 -12 -7 -20 -16 -20 -10 0 -14 6 -11 15 4 8 2 17 -3 20 -6 4 -10 -23 -9 -67 1 -68 2 -70 10 -34 11 48 46 86 59 65 5 -7 7 -16 4 -20 -3 -5 18 -19 30 -19 1 0 0 15 -2 34 -4 37 9 54 107 134 30 25 62 51 70 59 7 8 25 21 38 30 18 12 21 19 12 29 -14 17 -49 18 -50 2z"/> <path d="M1560 2513 c-8 -3 -34 -21 -57 -40 -46 -37 -109 -148 -90 -160 5 -3 16 3 24 13 8 10 19 18 24 17 5 -2 9 15 9 37 0 33 3 40 20 40 13 0 20 7 20 20 0 13 7 20 20 20 11 0 20 6 20 14 0 18 25 27 38 14 8 -8 9 -5 5 11 -6 22 -8 23 -33 14z"/> <path d="M1922 2422 c-15 -2 -22 -9 -18 -18 4 -11 -4 -14 -34 -14 -30 0 -40 -4 -40 -16 0 -14 3 -14 15 -4 12 10 15 10 15 -4 0 -12 -9 -16 -35 -16 -19 0 -35 -5 -35 -10 0 -6 6 -10 14 -8 8 2 16 -1 18 -7 2 -6 -16 -10 -39 -10 -34 0 -43 -4 -43 -17 0 -11 -8 -18 -20 -18 -13 0 -20 -7 -20 -20 0 -13 -7 -20 -19 -20 -13 0 -18 -7 -18 -25 0 -14 3 -28 8 -31 5 -3 9 2 9 10 0 15 44 66 57 66 4 0 15 8 25 17 16 15 21 15 28 3 5 -9 5 -17 -1 -21 -6 -4 -4 -9 6 -13 22 -8 38 2 31 20 -4 9 2 14 15 14 15 0 19 5 15 15 -10 27 41 62 102 68 57 6 81 23 59 43 -14 14 -63 22 -95 16z"/> <path d="M807 2270 c-26 -15 -35 -34 -19 -44 4 -2 60 -6 123 -7 114 -2 115 -2 114 -26 0 -27 -19 -42 -55 -43 -29 -1 -96 -50 -67 -50 9 0 17 -5 17 -10 0 -6 11 -3 24 7 13 10 22 21 20 24 -5 8 46 19 95 20 20 1 29 3 20 6 -9 2 -21 16 -28 30 -10 23 -10 25 6 18 10 -4 29 -7 42 -6 14 0 35 -6 48 -15 33 -21 97 -15 99 9 1 12 1 13 -3 2 -3 -10 -17 -15 -44 -15 -32 0 -39 3 -39 20 0 18 -7 20 -55 20 -30 0 -55 5 -55 10 0 6 17 10 39 10 22 0 44 6 51 15 9 10 9 15 1 15 -6 0 -11 -4 -11 -10 0 -6 -32 -10 -77 -10 -60 1 -74 3 -60 11 10 6 27 9 37 6 10 -3 21 1 24 9 8 20 -211 24 -247 4z"/> <path d="M1358 2268 c-2 -7 -2 -45 0 -85 2 -50 8 -73 18 -77 11 -4 14 11 14 84 0 70 -3 90 -14 90 -8 0 -16 -6 -18 -12z"/> <path d="M1895 2250 c-15 -5 -6 -10 40 -20 85 -18 86 -18 23 -19 -51 -1 -58 -3 -58 -21 0 -18 -7 -20 -55 -20 -42 0 -55 -3 -55 -15 0 -11 14 -15 55 -17 30 -1 63 -2 73 -2 11 -1 16 5 14 16 -4 27 16 32 138 38 115 5 115 5 115 30 l0 25 -102 -3 c-60 -3 -103 0 -103 5 0 12 -58 14 -85 3z"/> <path d="M1470 2209 c0 -32 -3 -39 -20 -39 -16 0 -20 -7 -20 -31 0 -17 4 -28 10 -24 6 3 10 14 10 25 0 10 7 20 15 24 8 3 15 14 15 25 0 11 7 26 15 34 12 13 12 15 -5 20 -17 4 -20 0 -20 -34z"/> <path d="M1574 2183 l2 -63 -31 0 c-16 0 -37 -5 -45 -10 -10 -7 7 -10 58 -10 69 0 73 -1 67 -20 -8 -24 7 -26 29 -5 13 14 14 11 9 -19 -5 -32 -3 -34 16 -29 19 5 21 1 21 -36 0 -34 3 -41 20 -41 19 0 20 -7 20 -157 0 -86 2 -154 4 -152 3 3 6 55 7 116 1 62 4 112 8 111 32 -4 42 41 10 49 -14 4 -19 14 -19 39 0 19 -4 34 -10 34 -5 0 -10 5 -10 11 0 7 -7 17 -17 24 -20 15 -11 47 12 39 10 -4 15 0 15 15 0 18 -6 21 -40 21 -33 0 -40 3 -40 20 0 13 7 20 20 20 13 0 20 7 20 20 0 20 0 20 -21 -1 -11 -11 -24 -18 -27 -14 -4 3 0 10 8 15 12 8 11 10 -6 10 -13 0 -24 -8 -27 -19 -3 -12 -12 -19 -23 -17 -15 2 -20 14 -25 57 l-6 54 1 -62z"/> <path d="M1770 2233 c0 -7 -6 -13 -13 -13 -12 0 -47 -34 -47 -45 0 -3 7 -5 15 -5 8 0 15 9 15 19 0 13 8 21 25 23 19 2 22 6 15 18 -6 10 -10 11 -10 3z"/> <path d="M1747 2134 c-11 -11 5 -34 25 -34 14 0 18 5 14 16 -3 9 -6 18 -6 20 0 6 -26 5 -33 -2z"/> <path d="M1091 2118 c-1 -14 -10 -18 -36 -18 -29 0 -35 -4 -35 -21 0 -20 -4 -21 -94 -17 -74 2 -92 0 -88 -10 2 -7 11 -11 18 -8 7 3 16 0 20 -6 4 -7 -8 -9 -38 -7 -42 4 -44 3 -40 -20 5 -23 3 -24 -42 -19 -25 3 -46 2 -46 -3 0 -5 -6 -9 -14 -9 -19 0 -27 -50 -12 -72 11 -15 15 -14 41 14 16 16 37 33 48 37 32 12 67 1 67 -20 0 -13 7 -19 21 -19 18 0 21 5 17 38 -3 36 -2 38 21 34 20 -4 22 -2 16 17 -6 20 -3 21 55 21 34 0 59 4 56 9 -9 14 18 40 49 46 25 5 27 4 13 -5 -10 -6 -18 -17 -18 -25 0 -7 -8 -16 -17 -18 -11 -3 -7 -5 10 -6 18 -1 27 4 27 14 0 8 9 15 21 15 16 0 19 4 14 20 -6 19 -2 20 74 20 74 0 81 -2 81 -20 0 -13 -7 -20 -20 -20 -11 0 -20 -4 -20 -10 0 -6 9 -6 23 -1 24 9 35 37 19 53 -14 14 -82 28 -82 17 0 -5 -15 -8 -32 -7 -18 1 -40 -2 -50 -6 -11 -5 -18 -2 -21 11 -4 16 -5 16 -6 1z"/> <path d="M1903 2109 c-12 -5 -3 -8 25 -8 24 -1 41 3 37 8 -6 11 -34 11 -62 0z"/> <path d="M1470 2050 c0 -5 5 -10 10 -10 6 0 10 -5 10 -11 0 -5 -4 -7 -10 -4 -5 3 -10 1 -10 -4 0 -6 10 -11 21 -11 23 0 69 -42 69 -63 0 -8 -17 -11 -54 -9 -36 3 -66 -2 -90 -13 -29 -14 -39 -15 -51 -5 -9 7 -47 15 -85 18 -39 2 -70 8 -70 12 0 4 -10 6 -22 5 -15 -1 -24 -10 -28 -26 -4 -16 -8 -20 -14 -11 -4 6 -5 16 -1 21 3 5 1 12 -5 16 -9 6 -15 -51 -10 -99 1 -14 -3 -18 -19 -13 -19 5 -21 1 -21 -40 0 -35 -3 -44 -14 -40 -11 5 -15 -18 -18 -121 -2 -70 -2 -129 0 -132 2 -3 10 4 18 14 13 19 14 18 14 -8 0 -34 20 -106 30 -106 3 0 4 88 2 195 -5 194 -4 195 17 195 18 0 21 6 21 40 l0 40 99 0 c94 0 99 -1 94 -20 -4 -15 0 -20 16 -20 14 0 21 6 21 20 0 19 7 20 100 20 l100 0 -6 -40 c-6 -37 -5 -40 18 -40 22 0 24 -3 20 -35 -4 -30 -1 -35 17 -35 19 0 21 6 21 55 0 48 -2 55 -20 55 -18 0 -20 7 -20 61 0 36 -4 58 -10 54 -5 -3 -7 -12 -3 -20 3 -9 -1 -15 -11 -15 -12 0 -15 8 -11 35 4 31 2 35 -20 35 -19 0 -22 4 -18 21 5 17 2 20 -18 17 -18 -2 -23 1 -21 15 2 11 -4 17 -18 17 -11 0 -20 -4 -20 -10z m-115 -142 c-4 -9 -29 -13 -80 -13 -53 0 -75 4 -75 13 0 8 23 12 80 12 59 0 78 -3 75 -12z m193 1 c-2 -6 -7 -10 -11 -10 -4 1 -29 1 -57 1 -27 0 -50 5 -50 10 0 6 27 10 61 10 39 0 59 -4 57 -11z m-457 -186 c1 -16 3 -46 4 -67 2 -36 -11 -104 -15 -81 -6 28 -4 175 3 175 4 0 8 -12 8 -27z"/> <path d="M1750 2044 c0 -15 10 -16 84 -11 56 4 87 2 95 -6 8 -8 11 -6 11 7 0 16 6 18 40 13 22 -3 40 -1 40 4 0 5 -61 9 -135 9 -119 0 -135 -2 -135 -16z"/> <path d="M1162 2005 c3 -30 6 -31 24 -7 12 16 13 15 14 -5 0 -29 11 -29 28 -2 9 14 19 18 32 14 14 -4 20 -2 20 9 0 13 -12 16 -60 16 -58 0 -60 -1 -58 -25z"/> <path d="M1866 2014 c-9 -24 -9 -24 34 -24 34 0 40 -3 40 -21 0 -16 4 -19 20 -14 16 5 20 2 20 -14 0 -14 6 -21 20 -21 13 0 20 -7 20 -20 0 -11 7 -20 15 -20 8 0 15 -7 15 -16 0 -8 7 -22 15 -31 8 -8 13 -19 10 -24 -4 -5 -1 -9 4 -9 6 0 11 -7 11 -15 0 -8 -5 -15 -11 -15 -6 0 -9 -9 -6 -20 3 -11 1 -20 -4 -20 -5 0 -9 9 -9 20 0 15 -7 20 -25 20 -28 0 -30 -3 -14 -29 8 -11 8 -24 3 -34 -8 -14 -15 -12 -51 16 -50 38 -59 73 -15 63 49 -12 56 -11 60 6 3 14 -3 16 -38 12 -35 -4 -41 -2 -40 13 6 54 1 63 -35 63 -28 0 -35 -4 -35 -20 0 -22 35 -29 43 -7 2 6 8 8 13 4 5 -4 4 -11 -2 -15 -6 -4 -14 -27 -17 -51 -3 -24 -11 -48 -19 -52 -8 -6 0 -9 24 -9 31 0 35 -3 31 -20 -4 -16 0 -20 18 -20 24 0 24 -1 21 -90 -3 -81 -5 -90 -23 -90 -10 0 -19 -7 -19 -15 0 -12 -13 -15 -61 -15 -56 0 -60 -2 -54 -20 5 -16 2 -20 -18 -20 -20 0 -24 -4 -20 -20 4 -16 0 -20 -21 -20 -20 0 -26 -4 -24 -17 2 -12 -4 -18 -17 -18 -13 0 -20 -7 -20 -20 0 -15 -6 -19 -24 -17 -20 3 -23 0 -18 -17 5 -21 3 -21 -189 -21 -187 0 -194 1 -194 20 0 17 -7 20 -40 20 -33 0 -40 3 -40 20 0 13 -7 20 -20 20 -17 0 -20 7 -20 50 0 28 -4 50 -9 50 -5 0 -8 -14 -7 -31 1 -16 -2 -33 -7 -36 -4 -3 -2 -12 6 -21 26 -31 27 -51 5 -72 l-22 -20 77 0 c70 0 77 -2 77 -20 0 -13 -7 -20 -20 -20 -18 0 -20 -7 -20 -55 l0 -55 -32 0 c-18 0 -49 -4 -68 -9 -43 -10 -79 -1 -58 15 7 6 22 15 33 19 19 8 19 9 -2 12 -18 3 -23 11 -23 34 0 54 -28 25 -35 -36 -1 -11 -3 -23 -4 -27 -3 -16 -73 -28 -142 -24 -80 4 -141 -2 -134 -14 3 -4 151 -5 330 -2 l325 5 2 -194 2 -194 6 169 c4 123 8 171 18 174 9 3 12 -40 12 -192 l0 -196 -297 1 c-288 0 -379 7 -304 22 19 4 138 8 265 9 l231 3 -279 5 c-267 5 -279 6 -282 24 -5 35 9 41 22 11 l13 -30 1 37 c0 31 -3 35 -20 31 -18 -5 -20 0 -20 56 0 51 -3 61 -17 61 -16 0 -18 9 -15 71 4 84 19 80 25 -6 l3 -60 2 67 2 68 281 -1 c155 0 284 2 287 5 5 5 -551 11 -586 7 -7 -1 -16 8 -21 21 l-8 23 -7 -22 c-13 -42 -8 -143 8 -168 11 -17 16 -49 16 -107 0 -46 4 -87 8 -93 4 -5 21 -17 37 -25 17 -9 31 -25 33 -37 2 -11 14 -31 28 -44 22 -21 36 -24 132 -27 104 -4 138 -13 125 -35 -3 -5 -1 -7 4 -4 6 4 13 -12 17 -41 11 -73 11 -77 19 -79 17 -6 26 -2 29 14 2 13 19 16 98 18 126 3 127 3 122 -43 -3 -20 -10 -41 -16 -45 -8 -6 -8 -10 2 -14 29 -12 8 -21 -38 -16 -41 4 -50 2 -50 -11 0 -12 -10 -16 -35 -16 -19 0 -35 4 -35 9 0 21 13 41 26 41 8 0 14 5 14 10 0 6 -11 10 -25 10 -18 0 -25 -5 -25 -20 0 -13 -7 -20 -20 -20 -11 0 -20 -6 -20 -14 0 -16 -36 -25 -79 -18 -41 6 -42 32 -1 32 20 0 30 5 30 15 0 8 -4 15 -10 15 -5 0 -10 7 -10 15 0 9 -6 12 -15 9 -8 -4 -15 -12 -15 -20 0 -8 -6 -13 -12 -12 -17 4 -23 -49 -7 -68 9 -11 47 -14 189 -14 159 0 179 2 184 17 4 10 6 63 5 119 -1 56 2 107 5 113 4 6 5 15 1 20 -5 8 23 31 38 31 2 0 7 -19 11 -42 7 -42 50 -118 67 -118 12 0 11 -37 -1 -45 -18 -11 -12 -73 9 -85 11 -5 71 -10 135 -10 l114 0 7 30 c7 31 2 59 -18 98 -8 18 -7 29 6 50 8 16 17 53 18 83 2 53 3 55 81 132 l78 77 0 105 c0 113 7 140 42 176 43 45 72 157 49 196 -8 14 -10 3 -11 -49 0 -61 -2 -68 -20 -68 -13 0 -20 -7 -20 -20 0 -16 -7 -20 -35 -20 -19 0 -35 5 -35 11 0 6 9 8 20 4 14 -4 20 -2 20 8 0 10 -7 13 -20 10 -15 -4 -20 0 -20 16 0 18 -6 21 -41 21 -36 0 -41 2 -36 20 4 16 0 20 -19 20 -17 0 -24 -6 -24 -20 0 -18 -7 -20 -60 -20 -52 0 -60 -2 -58 -17 3 -16 -6 -18 -57 -18 -50 -1 -60 -4 -59 -18 1 -12 -6 -17 -22 -17 -17 0 -24 -6 -24 -19 0 -14 -9 -20 -35 -23 l-35 -4 0 58 c0 51 2 58 20 58 13 0 20 7 20 20 0 13 7 20 18 20 15 0 17 6 14 35 l-4 35 65 0 c60 0 65 2 60 20 -5 18 0 20 40 20 l45 0 -5 41 -6 41 94 -7 c65 -5 91 -4 84 3 -5 6 -26 12 -45 14 -37 3 -50 13 -50 40 0 12 12 19 44 23 51 8 98 50 103 93 2 15 8 38 13 52 5 14 12 39 15 57 7 34 28 58 44 49 5 -3 11 0 14 6 3 8 9 1 16 -14 6 -16 17 -28 26 -28 8 0 15 -5 15 -11 0 -8 4 -8 14 0 11 9 10 18 -7 54 -12 23 -25 44 -29 45 -4 2 -8 8 -8 13 0 6 -9 29 -19 52 -11 24 -23 55 -27 70 -3 16 -12 26 -18 24 -8 -3 -11 4 -8 24 4 26 8 29 43 29 22 0 39 5 39 11 0 5 5 7 11 3 8 -5 8 -8 0 -13 -11 -7 38 -60 74 -78 35 -18 58 2 35 30 -5 7 -21 26 -35 44 -32 40 -85 69 -85 47 0 -10 -12 -14 -39 -14 -35 0 -39 2 -34 21 5 19 2 21 -46 17 -28 -1 -51 -7 -51 -13 1 -5 11 -9 24 -7 25 3 59 -23 53 -42 -8 -23 -40 -17 -72 14 -18 18 -38 29 -43 26 -6 -3 -17 1 -25 9 -19 19 -23 19 -31 -1z m-316 -776 c0 -28 -13 -58 -24 -58 -6 0 -17 -9 -24 -20 -11 -18 -23 -20 -117 -20 l-105 0 0 39 c0 35 2 39 22 33 18 -4 20 -2 16 16 -6 22 -4 22 113 22 89 0 119 -3 119 -12z m390 -173 c0 -28 4 -35 20 -35 19 0 20 -7 20 -135 0 -128 -1 -135 -20 -135 -13 0 -20 -7 -20 -20 0 -13 -7 -20 -20 -20 -13 0 -20 -7 -20 -20 0 -13 -7 -20 -20 -20 -13 0 -20 -7 -20 -20 0 -17 -7 -20 -41 -20 -36 0 -40 -2 -29 -15 19 -23 -1 -41 -28 -26 -11 6 -30 11 -41 11 -12 0 -21 7 -21 15 0 9 -9 15 -21 15 -15 0 -19 -5 -15 -15 5 -13 -43 -15 -389 -15 -388 0 -395 0 -395 20 0 20 7 20 315 20 308 0 315 0 315 20 0 11 6 20 14 20 19 0 22 13 18 61 -3 25 -9 39 -18 39 -11 0 -14 21 -14 100 l0 100 40 0 c33 0 40 3 40 20 0 18 7 20 60 20 l60 0 -3 -80 c-4 -78 -3 -80 19 -80 23 0 23 1 19 93 -6 142 -10 137 101 137 l94 0 0 -35z m-580 -514 c0 -12 7 -18 17 -17 12 0 19 -7 21 -22 3 -23 3 -23 -115 -20 l-118 3 -2 38 -2 37 99 0 c91 0 100 -2 100 -19z m68 -6 c-3 -30 -6 -31 -24 -7 -19 24 -17 32 6 32 15 0 19 -6 18 -25z m394 -7 c-3 -18 -10 -36 -16 -40 -6 -4 -66 -8 -133 -8 -91 0 -123 3 -124 13 0 6 -2 24 -3 40 l-2 27 141 0 142 0 -5 -32z m-14 -98 c4 -10 -4 -11 -26 -7 -17 4 -34 2 -37 -3 -3 -6 5 -10 19 -10 24 0 26 -4 26 -40 0 -36 -2 -40 -25 -40 -15 0 -25 -6 -25 -14 0 -17 -27 -22 -97 -18 -53 4 -53 4 -53 38 0 27 4 34 20 34 12 0 20 7 20 16 0 9 -9 18 -20 21 -29 8 -24 31 8 36 54 9 186 0 190 -13z"/> <path d="M1360 1195 c0 -11 11 -15 36 -15 19 0 33 4 30 9 -4 5 0 12 6 14 7 3 -6 6 -29 6 -32 1 -43 -3 -43 -14z"/> <path d="M1620 890 c0 -13 7 -20 20 -20 13 0 20 7 20 20 0 13 -7 20 -20 20 -13 0 -20 -7 -20 -20z"/> <path d="M1580 850 c0 -15 7 -20 25 -20 19 0 25 -5 23 -17 -2 -12 3 -18 16 -18 16 0 19 -8 20 -55 1 -48 4 -55 21 -55 13 0 20 -6 19 -17 -1 -12 5 -18 17 -18 11 0 23 -10 27 -21 8 -20 9 -19 25 12 16 34 16 34 -9 37 -20 3 -25 8 -21 23 4 15 0 19 -19 19 -24 0 -25 2 -22 55 l4 55 -39 0 c-30 0 -40 4 -44 20 -3 11 -14 20 -24 20 -12 0 -19 -7 -19 -20z"/> <path d="M1787 855 c-8 -20 -1 -21 63 -14 l55 6 -55 3 -55 4 75 6 75 6 -76 2 c-60 2 -78 -1 -82 -13z"/> <path d="M1550 810 c0 -11 6 -20 13 -20 19 0 27 10 20 26 -8 21 -33 17 -33 -6z"/> <path d="M1538 633 c18 -2 45 -2 60 0 15 2 0 4 -33 4 -33 0 -45 -2 -27 -4z"/> <path d="M1032 2012 c-8 -5 -14 -38 -16 -88 -2 -43 -1 -55 1 -26 3 37 8 52 18 52 10 0 15 11 15 35 0 39 0 38 -18 27z"/> <path d="M1295 1980 c28 -12 55 -12 55 0 0 6 -17 10 -37 9 -31 0 -34 -2 -18 -9z"/> <path d="M950 1860 l0 -60 -35 5 c-30 3 -35 1 -35 -15 0 -13 -7 -20 -20 -20 -13 0 -20 -7 -20 -20 0 -11 -7 -20 -15 -20 -11 0 -15 12 -15 45 0 29 4 45 13 45 8 0 7 4 -3 10 -26 17 -40 -18 -40 -101 0 -103 17 -111 61 -28 31 57 62 88 72 72 3 -5 8 -42 12 -83 4 -41 13 -85 21 -97 8 -13 12 -23 9 -23 -3 0 1 -13 10 -30 20 -38 49 -55 64 -36 15 18 3 46 -19 46 -15 0 -19 12 -25 74 -4 41 -5 124 -3 185 4 102 3 111 -14 111 -15 0 -18 -9 -18 -60z"/> <path d="M821 1879 c-14 -40 -14 -39 4 -39 10 0 15 11 15 35 0 43 -5 44 -19 4z"/> <path d="M1775 1735 c7 -116 7 -117 -14 -110 -19 6 -21 3 -21 -34 0 -34 -3 -41 -20 -41 -19 0 -20 7 -20 91 0 81 -2 90 -17 87 -15 -3 -18 -17 -21 -91 -3 -82 -2 -87 18 -87 17 0 20 -6 20 -40 0 -33 3 -40 20 -40 17 0 20 7 20 40 0 33 3 40 20 40 14 0 20 7 20 21 0 16 5 20 20 16 18 -5 20 0 20 49 0 50 2 54 23 54 20 0 23 5 24 40 2 36 0 40 -23 40 -18 0 -24 5 -22 18 2 11 -3 16 -14 14 -12 -2 -18 4 -18 17 0 11 -5 23 -11 27 -8 5 -9 -26 -4 -111z m53 23 c16 -16 15 -23 -4 -42 -24 -25 -34 -19 -34 19 0 36 15 46 38 23z"/> <path d="M1021 1653 c2 -79 6 -70 11 25 2 28 0 52 -4 52 -5 0 -7 -35 -7 -77z"/> <path d="M1200 1620 l0 -70 40 0 40 0 0 70 0 70 -40 0 -40 0 0 -70z"/> <path d="M1510 1620 l0 -70 38 0 37 0 0 70 0 70 -37 0 -38 0 0 -70z"/> <path d="M1893 1648 c-19 -25 -26 -41 -15 -34 6 3 12 -3 15 -16 3 -15 5 -10 6 14 1 26 6 38 19 41 14 4 14 5 1 6 -9 0 -21 -5 -26 -11z"/> <path d="M1871 1593 c0 -6 -4 -18 -7 -27 -5 -13 2 -16 35 -16 31 0 41 4 41 16 0 13 -7 15 -29 11 -23 -5 -31 -2 -34 11 -3 9 -5 12 -6 5z"/> <path d="M1980 1335 c0 -13 -4 -14 -20 -5 -12 6 -38 9 -58 7 l-37 -4 38 -1 c30 -2 37 -6 37 -22 0 -17 7 -20 40 -20 33 0 40 -3 40 -20 0 -18 -7 -20 -81 -20 -60 0 -80 -3 -76 -12 2 -7 13 -12 23 -11 10 1 42 4 71 6 28 2 59 9 67 16 22 18 14 55 -12 59 -13 2 -19 9 -16 17 3 7 1 16 -5 20 -6 3 -11 -1 -11 -10z"/> <path d="M1830 1310 l-25 -20 28 0 c20 0 27 5 27 20 0 24 1 24 -30 0z"/> <path d="M1391 1023 c0 -31 2 -34 9 -18 12 28 12 55 0 55 -5 0 -10 -17 -9 -37z"/> <path d="M1394 865 c0 -66 1 -92 3 -57 2 34 2 88 0 120 -2 31 -3 3 -3 -63z"/> <path d="M1058 943 c0 -5 -2 -15 -2 -23 -1 -8 -9 -14 -19 -14 -12 1 -17 -6 -17 -22 0 -14 6 -24 14 -24 8 0 16 -10 18 -22 2 -19 10 -24 41 -26 34 -3 37 -1 37 22 0 19 5 26 19 26 25 0 24 41 -1 48 -10 2 -18 13 -18 23 0 15 -7 19 -35 19 -19 0 -36 -3 -37 -7z m72 -63 c0 -17 -7 -20 -40 -20 -33 0 -40 3 -40 20 0 17 7 20 40 20 33 0 40 -3 40 -20z"/> </g> </svg> 